<mxfile host="app.diagrams.net" agent="Mozilla/5.0 (Windows NT 10.0; Win64; x64) AppleWebKit/537.36 (KHTML, like Gecko) Chrome/129.0.0.0 Safari/537.36" version="24.7.17">
  <diagram name="Page-1" id="5FahqcizpY_F6pzURLF_">
    <mxGraphModel dx="1203" dy="861" grid="1" gridSize="10" guides="1" tooltips="1" connect="1" arrows="1" fold="1" page="1" pageScale="1" pageWidth="850" pageHeight="1100" math="0" shadow="0">
      <root>
        <mxCell id="0" />
        <mxCell id="1" parent="0" />
        <mxCell id="E8F7wIBlQp-WmEb_z98m-14" style="edgeStyle=orthogonalEdgeStyle;rounded=0;orthogonalLoop=1;jettySize=auto;html=1;entryX=0.5;entryY=0;entryDx=0;entryDy=0;" edge="1" parent="1" source="E8F7wIBlQp-WmEb_z98m-1" target="E8F7wIBlQp-WmEb_z98m-3">
          <mxGeometry relative="1" as="geometry" />
        </mxCell>
        <mxCell id="E8F7wIBlQp-WmEb_z98m-1" value="&lt;font style=&quot;font-size: 10px;&quot; face=&quot;Neuzeit&quot;&gt;&lt;b&gt;Start&lt;/b&gt;&lt;/font&gt;" style="ellipse;whiteSpace=wrap;html=1;fillColor=#f8cecc;strokeColor=#b85450;" vertex="1" parent="1">
          <mxGeometry x="253.25" y="120" width="45" height="30" as="geometry" />
        </mxCell>
        <mxCell id="E8F7wIBlQp-WmEb_z98m-2" value="&lt;font style=&quot;font-size: 10px;&quot; face=&quot;Neuzeit&quot;&gt;&lt;b&gt;End&lt;/b&gt;&lt;/font&gt;" style="ellipse;whiteSpace=wrap;html=1;fillColor=#f8cecc;strokeColor=#b85450;" vertex="1" parent="1">
          <mxGeometry x="542.74" y="800" width="45" height="30" as="geometry" />
        </mxCell>
        <mxCell id="E8F7wIBlQp-WmEb_z98m-15" style="edgeStyle=orthogonalEdgeStyle;rounded=0;orthogonalLoop=1;jettySize=auto;html=1;entryX=0.5;entryY=0;entryDx=0;entryDy=0;" edge="1" parent="1" source="E8F7wIBlQp-WmEb_z98m-3" target="E8F7wIBlQp-WmEb_z98m-4">
          <mxGeometry relative="1" as="geometry" />
        </mxCell>
        <mxCell id="E8F7wIBlQp-WmEb_z98m-3" value="&lt;font style=&quot;font-size: 10px;&quot; face=&quot;Neuzeit&quot;&gt;Initialize RoboDK&lt;/font&gt;" style="rounded=0;whiteSpace=wrap;html=1;fillColor=#dae8fc;strokeColor=#6c8ebf;" vertex="1" parent="1">
          <mxGeometry x="245.75" y="192" width="60" height="30" as="geometry" />
        </mxCell>
        <mxCell id="E8F7wIBlQp-WmEb_z98m-16" style="edgeStyle=orthogonalEdgeStyle;rounded=0;orthogonalLoop=1;jettySize=auto;html=1;entryX=0.5;entryY=0;entryDx=0;entryDy=0;" edge="1" parent="1" source="E8F7wIBlQp-WmEb_z98m-4" target="E8F7wIBlQp-WmEb_z98m-6">
          <mxGeometry relative="1" as="geometry" />
        </mxCell>
        <mxCell id="E8F7wIBlQp-WmEb_z98m-4" value="&lt;font face=&quot;Neuzeit&quot; style=&quot;font-size: 10px;&quot;&gt;connect_to_robot&lt;/font&gt;" style="rounded=0;whiteSpace=wrap;html=1;fillColor=#dae8fc;strokeColor=#6c8ebf;" vertex="1" parent="1">
          <mxGeometry x="236" y="252" width="79.5" height="30" as="geometry" />
        </mxCell>
        <mxCell id="E8F7wIBlQp-WmEb_z98m-17" style="edgeStyle=orthogonalEdgeStyle;rounded=0;orthogonalLoop=1;jettySize=auto;html=1;exitX=1;exitY=0.5;exitDx=0;exitDy=0;entryX=0;entryY=0.5;entryDx=0;entryDy=0;" edge="1" parent="1" source="E8F7wIBlQp-WmEb_z98m-6" target="E8F7wIBlQp-WmEb_z98m-7">
          <mxGeometry relative="1" as="geometry">
            <mxPoint x="365.25" y="362" as="targetPoint" />
          </mxGeometry>
        </mxCell>
        <mxCell id="E8F7wIBlQp-WmEb_z98m-20" style="edgeStyle=orthogonalEdgeStyle;rounded=0;orthogonalLoop=1;jettySize=auto;html=1;entryX=1;entryY=0.5;entryDx=0;entryDy=0;" edge="1" parent="1" source="E8F7wIBlQp-WmEb_z98m-6" target="E8F7wIBlQp-WmEb_z98m-19">
          <mxGeometry relative="1" as="geometry" />
        </mxCell>
        <mxCell id="E8F7wIBlQp-WmEb_z98m-6" value="&lt;font style=&quot;font-size: 10px;&quot; face=&quot;Neuzeit&quot;&gt;Is the robot Valid?&lt;/font&gt;" style="rhombus;whiteSpace=wrap;html=1;fillColor=#fff2cc;strokeColor=#d6b656;" vertex="1" parent="1">
          <mxGeometry x="230.75" y="322" width="90" height="90" as="geometry" />
        </mxCell>
        <mxCell id="E8F7wIBlQp-WmEb_z98m-21" style="edgeStyle=orthogonalEdgeStyle;rounded=0;orthogonalLoop=1;jettySize=auto;html=1;entryX=0.5;entryY=0;entryDx=0;entryDy=0;" edge="1" parent="1" source="E8F7wIBlQp-WmEb_z98m-7" target="E8F7wIBlQp-WmEb_z98m-9">
          <mxGeometry relative="1" as="geometry" />
        </mxCell>
        <mxCell id="E8F7wIBlQp-WmEb_z98m-7" value="&lt;font face=&quot;Neuzeit&quot; style=&quot;font-size: 10px;&quot;&gt;validate_point_index&lt;/font&gt;" style="rounded=0;whiteSpace=wrap;html=1;fillColor=#dae8fc;strokeColor=#6c8ebf;" vertex="1" parent="1">
          <mxGeometry x="365" y="312" width="90.25" height="30" as="geometry" />
        </mxCell>
        <mxCell id="E8F7wIBlQp-WmEb_z98m-22" style="edgeStyle=orthogonalEdgeStyle;rounded=0;orthogonalLoop=1;jettySize=auto;html=1;entryX=0;entryY=0.5;entryDx=0;entryDy=0;" edge="1" parent="1" source="E8F7wIBlQp-WmEb_z98m-9" target="E8F7wIBlQp-WmEb_z98m-10">
          <mxGeometry relative="1" as="geometry" />
        </mxCell>
        <mxCell id="E8F7wIBlQp-WmEb_z98m-9" value="&lt;font style=&quot;font-size: 10px;&quot; face=&quot;Neuzeit&quot;&gt;Is PointIndex Valid?&lt;/font&gt;" style="rhombus;whiteSpace=wrap;html=1;fillColor=#fff2cc;strokeColor=#d6b656;" vertex="1" parent="1">
          <mxGeometry x="360.12" y="392" width="100" height="100" as="geometry" />
        </mxCell>
        <mxCell id="E8F7wIBlQp-WmEb_z98m-25" style="edgeStyle=orthogonalEdgeStyle;rounded=0;orthogonalLoop=1;jettySize=auto;html=1;entryX=0.5;entryY=0;entryDx=0;entryDy=0;" edge="1" parent="1" source="E8F7wIBlQp-WmEb_z98m-10" target="E8F7wIBlQp-WmEb_z98m-11">
          <mxGeometry relative="1" as="geometry">
            <mxPoint x="565.25" y="522" as="targetPoint" />
          </mxGeometry>
        </mxCell>
        <mxCell id="E8F7wIBlQp-WmEb_z98m-29" style="edgeStyle=orthogonalEdgeStyle;rounded=0;orthogonalLoop=1;jettySize=auto;html=1;entryX=0;entryY=0.5;entryDx=0;entryDy=0;" edge="1" parent="1" source="E8F7wIBlQp-WmEb_z98m-10" target="E8F7wIBlQp-WmEb_z98m-12">
          <mxGeometry relative="1" as="geometry" />
        </mxCell>
        <mxCell id="E8F7wIBlQp-WmEb_z98m-10" value="&lt;font style=&quot;font-size: 10px;&quot; face=&quot;Neuzeit&quot;&gt;SetBase?&lt;/font&gt;" style="rhombus;whiteSpace=wrap;html=1;fillColor=#fff2cc;strokeColor=#d6b656;" vertex="1" parent="1">
          <mxGeometry x="515.25" y="392" width="100" height="100" as="geometry" />
        </mxCell>
        <mxCell id="E8F7wIBlQp-WmEb_z98m-28" style="edgeStyle=orthogonalEdgeStyle;rounded=0;orthogonalLoop=1;jettySize=auto;html=1;entryX=0.5;entryY=0;entryDx=0;entryDy=0;" edge="1" parent="1" source="E8F7wIBlQp-WmEb_z98m-11" target="E8F7wIBlQp-WmEb_z98m-13">
          <mxGeometry relative="1" as="geometry" />
        </mxCell>
        <mxCell id="E8F7wIBlQp-WmEb_z98m-11" value="&lt;font face=&quot;Neuzeit&quot; style=&quot;font-size: 10px;&quot;&gt;set_robot_base&lt;/font&gt;" style="rounded=0;whiteSpace=wrap;html=1;fillColor=#dae8fc;strokeColor=#6c8ebf;" vertex="1" parent="1">
          <mxGeometry x="520.12" y="542" width="90.25" height="30" as="geometry" />
        </mxCell>
        <mxCell id="E8F7wIBlQp-WmEb_z98m-33" style="edgeStyle=orthogonalEdgeStyle;rounded=0;orthogonalLoop=1;jettySize=auto;html=1;entryX=1;entryY=0.5;entryDx=0;entryDy=0;" edge="1" parent="1" source="E8F7wIBlQp-WmEb_z98m-12" target="E8F7wIBlQp-WmEb_z98m-13">
          <mxGeometry relative="1" as="geometry">
            <Array as="points">
              <mxPoint x="720" y="655" />
            </Array>
          </mxGeometry>
        </mxCell>
        <mxCell id="E8F7wIBlQp-WmEb_z98m-12" value="&lt;font face=&quot;Neuzeit&quot; style=&quot;font-size: 10px;&quot;&gt;get_current_base_position&lt;/font&gt;" style="rounded=0;whiteSpace=wrap;html=1;fillColor=#dae8fc;strokeColor=#6c8ebf;" vertex="1" parent="1">
          <mxGeometry x="665.25" y="427" width="119.75" height="30" as="geometry" />
        </mxCell>
        <mxCell id="E8F7wIBlQp-WmEb_z98m-31" style="edgeStyle=orthogonalEdgeStyle;rounded=0;orthogonalLoop=1;jettySize=auto;html=1;entryX=0.5;entryY=0;entryDx=0;entryDy=0;" edge="1" parent="1" source="E8F7wIBlQp-WmEb_z98m-13" target="E8F7wIBlQp-WmEb_z98m-30">
          <mxGeometry relative="1" as="geometry" />
        </mxCell>
        <mxCell id="E8F7wIBlQp-WmEb_z98m-34" style="edgeStyle=orthogonalEdgeStyle;rounded=0;orthogonalLoop=1;jettySize=auto;html=1;entryX=1;entryY=0.5;entryDx=0;entryDy=0;" edge="1" parent="1" source="E8F7wIBlQp-WmEb_z98m-13" target="E8F7wIBlQp-WmEb_z98m-26">
          <mxGeometry relative="1" as="geometry" />
        </mxCell>
        <mxCell id="E8F7wIBlQp-WmEb_z98m-13" value="&lt;font style=&quot;font-size: 10px;&quot; face=&quot;Neuzeit&quot;&gt;Is the base Valid?&lt;/font&gt;" style="rhombus;whiteSpace=wrap;html=1;fillColor=#fff2cc;strokeColor=#d6b656;" vertex="1" parent="1">
          <mxGeometry x="520.37" y="610" width="90" height="90" as="geometry" />
        </mxCell>
        <mxCell id="E8F7wIBlQp-WmEb_z98m-19" value="&lt;font color=&quot;#000000&quot; style=&quot;font-size: 10px;&quot; face=&quot;Neuzeit&quot;&gt;&quot;Error: Could not find robot.&quot;&lt;/font&gt;" style="shape=parallelogram;perimeter=parallelogramPerimeter;whiteSpace=wrap;html=1;fixedSize=1;fillColor=#a20025;fontColor=#ffffff;strokeColor=#6F0000;opacity=20;" vertex="1" parent="1">
          <mxGeometry x="25" y="354.5" width="170" height="25" as="geometry" />
        </mxCell>
        <mxCell id="E8F7wIBlQp-WmEb_z98m-23" value="&lt;font color=&quot;#000000&quot; style=&quot;font-size: 10px;&quot; face=&quot;Neuzeit&quot;&gt;&lt;b&gt;&quot;Error: Point index out of bounds.&quot;&lt;/b&gt;&lt;/font&gt;" style="shape=parallelogram;perimeter=parallelogramPerimeter;whiteSpace=wrap;html=1;fixedSize=1;fillColor=#a20025;fontColor=#ffffff;strokeColor=#6F0000;opacity=20;" vertex="1" parent="1">
          <mxGeometry x="145.5" y="429.5" width="170" height="25" as="geometry" />
        </mxCell>
        <mxCell id="E8F7wIBlQp-WmEb_z98m-24" style="edgeStyle=orthogonalEdgeStyle;rounded=0;orthogonalLoop=1;jettySize=auto;html=1;entryX=0.97;entryY=0.514;entryDx=0;entryDy=0;entryPerimeter=0;" edge="1" parent="1" source="E8F7wIBlQp-WmEb_z98m-9" target="E8F7wIBlQp-WmEb_z98m-23">
          <mxGeometry relative="1" as="geometry" />
        </mxCell>
        <mxCell id="E8F7wIBlQp-WmEb_z98m-26" value="&lt;font color=&quot;#000000&quot; style=&quot;font-size: 10px;&quot; face=&quot;Neuzeit&quot;&gt;&lt;font style=&quot;font-size: 10px;&quot;&gt;&quot;&lt;/font&gt;&lt;strong style=&quot;&quot;&gt;Error: Could not find or&amp;nbsp;&lt;/strong&gt;&lt;/font&gt;&lt;div style=&quot;font-size: 10px;&quot;&gt;&lt;font color=&quot;#000000&quot; style=&quot;font-size: 10px;&quot; face=&quot;Neuzeit&quot;&gt;&lt;strong style=&quot;&quot;&gt;access the robot base&lt;/strong&gt;.&quot;&lt;/font&gt;&lt;/div&gt;" style="shape=parallelogram;perimeter=parallelogramPerimeter;whiteSpace=wrap;html=1;fixedSize=1;fillColor=#a20025;fontColor=#ffffff;strokeColor=#6F0000;opacity=20;" vertex="1" parent="1">
          <mxGeometry x="320.75" y="644.38" width="160" height="21.25" as="geometry" />
        </mxCell>
        <mxCell id="E8F7wIBlQp-WmEb_z98m-32" style="edgeStyle=orthogonalEdgeStyle;rounded=0;orthogonalLoop=1;jettySize=auto;html=1;entryX=0.5;entryY=0;entryDx=0;entryDy=0;" edge="1" parent="1" source="E8F7wIBlQp-WmEb_z98m-30" target="E8F7wIBlQp-WmEb_z98m-2">
          <mxGeometry relative="1" as="geometry" />
        </mxCell>
        <mxCell id="E8F7wIBlQp-WmEb_z98m-30" value="&lt;font face=&quot;Neuzeit&quot; color=&quot;#000000&quot; style=&quot;font-size: 10px;&quot;&gt;&quot;Base set successfully.&quot;&lt;/font&gt;" style="shape=parallelogram;perimeter=parallelogramPerimeter;whiteSpace=wrap;html=1;fixedSize=1;fillColor=#60a917;fontColor=#ffffff;strokeColor=#2D7600;opacity=20;" vertex="1" parent="1">
          <mxGeometry x="505.06" y="740" width="120.37" height="25" as="geometry" />
        </mxCell>
      </root>
    </mxGraphModel>
  </diagram>
</mxfile>
